<svg xmlns="http://www.w3.org/2000/svg" viewBox="0 0 1230.36 231.24"><defs><style>.cls-1,.cls-2{fill:#3d2985;}.cls-2{font-size:68.91px;font-family:NimbusSanL-Bol, Nimbus Sans L;}</style></defs><g id="Layer_2" data-name="Layer 2"><g id="Layer_1-2" data-name="Layer 1"><polygon class="cls-1" points="215.24 167.28 215.24 225.98 111.95 225.98 109.42 221.59 78.27 167.65 32.86 89 0 32.07 0 30.3 136.97 30.3 136.97 89 41.76 89 86.95 167.28 215.24 167.28"/><path class="cls-1" d="M374.42,115.7c-4.57-20.36-15.78-30-35.69-30-27,0-43.24,22-43.24,58.8,0,36.38,15.56,57.88,42.1,57.88,21.28,0,34.55-12.12,36.83-33.4h33.41c-2.06,38.21-29.52,62.23-71.16,62.23-46.44,0-75.5-33.4-75.5-87.17,0-54,29.29-87.63,76.42-87.63,24.94,0,45.53,9.38,58.34,26.32C403,92.14,406,101.29,407.14,115.7Z"/><path class="cls-1" d="M565.92,59.19v113c0,18.76-5,32-16.24,42.1-12.13,11-29.75,16.93-49.88,16.93s-37.75-6-49.88-16.93c-11.21-10.07-16.24-23.34-16.24-42.1v-113H468v113c0,20.14,10.29,29.75,31.8,29.75s31.8-9.61,31.8-29.75v-113Z"/><path class="cls-1" d="M600.23,59.19h74.36c17.85,0,29.52,3.66,39.35,12.12,9.38,8.24,15.1,20.14,15.1,31.81,0,14.18-6.4,23.79-22.87,34.32,19,11,27.68,24,27.68,40.49,0,13.5-6.41,27.46-16.47,35.92S694.5,226,675.28,226h-75Zm34.32,66.35h37.3c16,0,24.25-6.41,24.25-19,0-12.36-8.24-18.76-24.25-18.76h-37.3Zm0,71.84h41c16.7,0,25.39-7.32,25.39-21.51,0-14.41-8.69-21.73-25.39-21.73h-41Z"/><path class="cls-1" d="M795.39,226H761.07V59.19h34.32Z"/><path class="cls-1" d="M958.29,226H917.57l-32-57.89L853.74,226H813.92l52.63-84L815.76,59.19h40.72l29.29,54.91,30.65-54.91h39.81l-51.47,81.68Z"/><path class="cls-1" d="M1010.23,226H975.91V59.19h34.32Z"/><path class="cls-1" d="M1112.73,226h-34.32V87.79h-50.56V59.19h133.61v28.6h-48.73Z"/><text class="cls-2" transform="translate(1161.46 59.19)">™</text></g></g></svg>